# xmcd
#
# Track frame offsets: 
#        151
#        20350
#        28174
#        35489
#        48337
#        52723
#        59058
#        70103
#        87555
#        121212
#        136350
#        150158
#        153275
#        163387
#        179859
#        199878
#        228440
#        237310
#        248997
#        256953
#        270442
#        278042
#
# Disc length: 4079 seconds
#
# Revision: 1
# Processed by: cddbd v1.5.2PL0 Copyright (c) Steve Scherf et al.
# Submitted via: ExactAudioCopy v0.99pb5
#
DISCID=360fed16
DTITLE=Bubba The Love Sponge - Raw and Uncensored - Disk 1
DYEAR=1900
DGENRE=Comedy
TTITLE0=Ned Tells It Like It Is
TTITLE1=Voice Box Lady
TTITLE2=The Real Sixth Sence
TTITLE3=Apocolypse Ned (The White Light)
TTITLE4=Evel Knievel Gimmick #1
TTITLE5=He's So Fat and Lazy
TTITLE6=Cartman Menace
TTITLE7=Blackman vs. Austin Powers
TTITLE8=Spice Boy's Leap Of Stupidity
TTITLE9=MTV's Real World Order
TTITLE10=Ned's Storytime
TTITLE11=Evel Knievel Gimmick #2
TTITLE12=The Real Ricky Martin
TTITLE13=FA-Q Visits Kosovo
TTITLE14=Star Wars Jeopardy
TTITLE15=Crack Lady Call
TTITLE16=Ode To Bubba's Mom
TTITLE17=Jerrico Killed The Radio Star
TTITLE18=Dilfer's Diary
TTITLE19=Name That Explitive
TTITLE20=Dead Girls
TTITLE21=Evel Knievel Gimmick #3
EXTD=Bubba The Love Sponge - Raw and Uncensored - Disk 1
EXTT0=
EXTT1=
EXTT2=
EXTT3=
EXTT4=
EXTT5=
EXTT6=
EXTT7=
EXTT8=
EXTT9=
EXTT10=
EXTT11=
EXTT12=
EXTT13=
EXTT14=
EXTT15=
EXTT16=
EXTT17=
EXTT18=
EXTT19=
EXTT20=
EXTT21=
PLAYORDER=
